<?xml version="1.0" standalone="no"?>
<!DOCTYPE svg PUBLIC "-//W3C//DTD SVG 20010904//EN"
 "http://www.w3.org/TR/2001/REC-SVG-20010904/DTD/svg10.dtd">
<svg version="1.0" xmlns="http://www.w3.org/2000/svg"
 width="532.000000pt" height="532.000000pt" viewBox="0 0 532.000000 532.000000"
 preserveAspectRatio="xMidYMid meet">
<metadata>
Created by potrace 1.14, written by Peter Selinger 2001-2017
</metadata>
<g transform="translate(0.000000,532.000000) scale(0.100000,-0.100000)"
fill="#000000" stroke="none">
<path d="M860 4356 c-118 -31 -210 -108 -252 -215 -20 -51 -22 -77 -26 -273
l-4 -217 -52 -11 c-69 -14 -129 -59 -158 -118 l-23 -47 -3 -764 c-3 -863 -5
-836 69 -910 37 -37 111 -71 155 -71 9 0 13 -55 16 -217 4 -192 7 -224 25
-270 43 -109 136 -189 255 -219 53 -14 105 -16 338 -11 355 7 513 34 743 126
139 56 128 49 1092 622 l350 207 270 5 c217 4 291 9 375 26 256 50 473 136
679 268 105 68 163 114 265 212 166 161 166 262 0 421 -264 252 -567 408 -937
481 -82 17 -156 22 -377 26 l-275 5 -355 210 c-195 116 -475 282 -621 369
-430 256 -540 303 -819 355 -121 23 -652 30 -730 10z m370 -406 l0 -300 -271
0 -271 0 4 208 3 207 29 53 c32 57 81 102 131 120 17 6 108 11 203 11 l172 1
0 -300z m350 274 c110 -19 215 -49 315 -90 100 -40 119 -51 448 -246 147 -88
289 -170 315 -184 26 -14 147 -84 270 -157 l223 -132 -698 -3 c-478 -2 -710 1
-735 8 -21 6 -63 35 -97 65 -73 68 -157 120 -222 136 l-49 13 0 309 0 309 73
-7 c39 -3 110 -13 157 -21z m-206 -717 c68 -24 112 -52 183 -119 108 -102 -15
-92 1253 -98 1092 -6 1117 -6 1215 -27 358 -77 633 -219 877 -452 108 -103
105 -147 -20 -258 -238 -212 -438 -325 -715 -402 -197 -56 -146 -54 -1352 -60
-1278 -7 -1143 4 -1267 -106 -85 -77 -151 -112 -234 -125 -32 -6 -216 -10
-407 -10 -379 0 -396 2 -432 56 -19 27 -20 51 -23 377 l-3 347 633 0 c692 0
680 -1 686 57 6 65 29 63 -681 63 l-638 0 3 348 c3 321 4 349 22 375 39 58 36
57 461 54 332 -3 397 -6 439 -20z m1744 -1560 c-20 -12 -123 -73 -230 -136
-106 -62 -308 -181 -448 -263 -140 -83 -302 -177 -359 -209 -212 -122 -412
-184 -654 -204 l-77 -7 2 308 3 308 61 21 c82 28 149 69 214 130 30 29 64 57
75 63 14 8 227 11 735 11 l715 0 -37 -22z m-1888 -518 l0 -301 -182 4 c-167 3
-187 5 -225 25 -43 23 -76 61 -109 123 -16 30 -19 64 -22 243 l-4 207 271 0
271 0 0 -301z"/>
<path d="M3990 2983 c-38 -13 -40 -31 -40 -290 l0 -254 25 -24 c13 -14 29 -25
35 -25 6 0 22 11 35 25 l25 24 0 251 0 251 -25 24 c-25 26 -29 27 -55 18z"/>
</g>
</svg>
